<svg viewBox="227.5862 283.0001 593.8275 190.0001" width="5000" height="1599.7920271459304" xmlns="http://www.w3.org/2000/svg" xmlns:xlink="http://www.w3.org/1999/xlink" preserveAspectRatio="none"><defs></defs><style>.a6izo4zJpcolor {fill:#344960;fill-opacity:1;}.a6izo4zJpstrokeColor-str {stroke:#8C7B6E;stroke-opacity:1;}.aD6z1nYkhcolor {fill:#344960;fill-opacity:1;}.aD6z1nYkhstrokeColor-str {stroke:#8C7B6E;stroke-opacity:1;}.aIptOCySncolors-0 {fill:#CC8561;fill-opacity:1;}.aIptOCySncolors-1 {fill:#344960;fill-opacity:1;}.aIptOCySncolors-2 {fill:#8C7B6E;fill-opacity:1;}.aIptOCySncolors-3 {fill:#9E8172;fill-opacity:1;}.aIptOCySncolors-4 {fill:#C45820;fill-opacity:1;}.aIptOCySncolors-5 {fill:#9A4703;fill-opacity:1;}.aIptOCySncolors-6 {fill:#C0A293;fill-opacity:1;}.aIptOCySncolors-7 {fill:#FBF3EE;fill-opacity:1;}</style><g opacity="1" transform="rotate(0 227.5862 283.0001)">
<svg width="190.0001" height="190.0001" x="227.5862" y="283.0001" version="1.1" preserveAspectRatio="none" viewBox="20 20 160 160">
  <g transform="matrix(1 0 0 1 0 0)" ><g><path d="M100 20c-13.143 0-26.176 3.26-37.696 9.424a4.702 4.702 0 0 0-1.93 6.366c1.219 2.292 4.081 3.174 6.366 1.93 8.779-4.697 18.573-7.349 28.554-8.019v15.635C67.218 47.735 45.098 71.313 45.098 100a54.814 54.814 0 0 0 7.384 27.482 4.703 4.703 0 0 0 6.434 1.704 4.71 4.71 0 0 0 1.703-6.434 45.394 45.394 0 0 1-6.109-22.751c0-25.086 20.404-45.49 45.49-45.49 7.028 0 13.768 1.569 20.031 4.657a4.707 4.707 0 1 0 4.167-8.443c-6.158-3.034-12.703-4.787-19.491-5.36V29.65c36.726 2.44 65.882 33.017 65.882 70.35 0 38.922-31.667 70.588-70.588 70.588S29.412 138.922 29.412 100c0-15.355 4.841-29.945 14.001-42.206a4.71 4.71 0 0 0-.95-6.587 4.703 4.703 0 0 0-6.587.95C25.49 66.06 20 82.604 20 100c0 44.112 35.888 80 80 80s80-35.888 80-80-35.888-80-80-80z" data-color="1" class="aIptOCySncolors-0"></path><path d="M79.608 100c0-2.598-2.108-4.706-4.706-4.706s-4.706 2.108-4.706 4.706c0 14.822 10.907 27.053 25.098 29.328v15.824c-3.881-.388-7.715-1.21-11.366-2.597a4.707 4.707 0 0 0-3.345 8.799 54.578 54.578 0 0 0 19.418 3.548 54.743 54.743 0 0 0 27.457-7.377 4.7 4.7 0 0 0 1.71-6.428c-1.293-2.249-4.185-3.015-6.428-1.71-5.522 3.197-11.716 5.1-18.033 5.758v-15.817c12.648-2.028 22.594-11.974 24.622-24.622h15.889c-.568 5.574-2.119 10.933-4.696 15.968a4.695 4.695 0 0 0 2.04 6.33 4.696 4.696 0 0 0 6.329-2.04c3.934-7.665 6.011-16.299 6.011-24.963 0-11.225-3.376-22.028-9.767-31.225-1.477-2.132-4.418-2.659-6.55-1.183a4.71 4.71 0 0 0-1.183 6.55c4.391 6.317 6.95 13.564 7.734 21.152h-15.808C127.053 81.103 114.822 70.196 100 70.196c-7.678 0-14.969 2.923-20.539 8.223a4.704 4.704 0 0 0-.159 6.654 4.71 4.71 0 0 0 6.654.159A20.27 20.27 0 0 1 100 79.607c11.244 0 20.392 9.148 20.392 20.392s-9.148 20.392-20.392 20.392S79.608 111.244 79.608 100z" data-color="1" class="aIptOCySncolors-0"></path><path d="M106.275 100a6.275 6.275 0 1 1-12.55 0 6.275 6.275 0 0 1 12.55 0z" data-color="1" class="aIptOCySncolors-0"></path></g></g>
</svg>
</g><g opacity="1" transform="rotate(0 470.435 453.0002)">
<svg width="311.13" height="20" x="470.435" y="453.0002" version="1.1" preserveAspectRatio="none" viewBox="2.08 -29.68 585.4399999999999 37.64">
  <g transform="matrix(1 0 0 1 0 0)" class="a6izo4zJpcolor"><path id="id-6izo4zJp26" d="M16.72 0.24Q12.56 0.24 9.22-1.60Q5.88-3.44 3.98-6.70Q2.08-9.96 2.08-14L2.08-14Q2.08-18.04 3.98-21.30Q5.88-24.56 9.24-26.40Q12.60-28.24 16.76-28.24L16.76-28.24Q19.88-28.24 22.52-27.20Q25.16-26.16 27-24.16L27-24.16L25.12-22.28Q21.84-25.60 16.84-25.60L16.84-25.60Q13.52-25.60 10.80-24.08Q8.08-22.56 6.54-19.92Q5-17.28 5-14L5-14Q5-10.72 6.54-8.08Q8.08-5.44 10.80-3.92Q13.52-2.40 16.84-2.40L16.84-2.40Q21.88-2.40 25.12-5.76L25.12-5.76L27-3.88Q25.16-1.88 22.50-0.82Q19.84 0.24 16.72 0.24L16.72 0.24Z M42.40 0.20Q39.36 0.20 36.92-1.18Q34.48-2.56 33.08-5Q31.68-7.44 31.68-10.52L31.68-10.52Q31.68-13.60 33.08-16.04Q34.48-18.48 36.92-19.84Q39.36-21.20 42.40-21.20L42.40-21.20Q45.44-21.20 47.88-19.84Q50.32-18.48 51.70-16.04Q53.08-13.60 53.08-10.52L53.08-10.52Q53.08-7.44 51.70-5Q50.32-2.56 47.88-1.18Q45.44 0.20 42.40 0.20L42.40 0.20ZM42.40-2.32Q44.64-2.32 46.42-3.34Q48.20-4.36 49.20-6.24Q50.20-8.12 50.20-10.52L50.20-10.52Q50.20-12.92 49.20-14.80Q48.20-16.68 46.42-17.70Q44.64-18.72 42.40-18.72L42.40-18.72Q40.16-18.72 38.38-17.70Q36.60-16.68 35.58-14.80Q34.56-12.92 34.56-10.52L34.56-10.52Q34.56-8.12 35.58-6.24Q36.60-4.36 38.38-3.34Q40.16-2.32 42.40-2.32L42.40-2.32Z M60.88 0L60.88-29.68L63.72-29.68L63.72 0L60.88 0Z M73.64 0L73.64-29.68L76.48-29.68L76.48 0L73.64 0Z M104.76-10.52L104.72-9.64L87.12-9.64Q87.36-6.36 89.64-4.34Q91.92-2.32 95.40-2.32L95.40-2.32Q97.36-2.32 99.00-3.02Q100.64-3.72 101.84-5.08L101.84-5.08L103.44-3.24Q102.04-1.56 99.94-0.68Q97.84 0.20 95.32 0.20L95.32 0.20Q92.08 0.20 89.58-1.18Q87.08-2.56 85.68-5Q84.28-7.44 84.28-10.52L84.28-10.52Q84.28-13.60 85.62-16.04Q86.96-18.48 89.30-19.84Q91.64-21.20 94.56-21.20L94.56-21.20Q97.48-21.20 99.80-19.84Q102.12-18.48 103.44-16.06Q104.76-13.64 104.76-10.52L104.76-10.52ZM94.56-18.76Q91.52-18.76 89.46-16.82Q87.40-14.88 87.12-11.76L87.12-11.76L102.04-11.76Q101.76-14.88 99.70-16.82Q97.64-18.76 94.56-18.76L94.56-18.76Z M121.28 0.20Q118.16 0.20 115.70-1.16Q113.24-2.52 111.84-4.98Q110.44-7.44 110.44-10.52L110.44-10.52Q110.44-13.60 111.84-16.04Q113.24-18.48 115.70-19.84Q118.16-21.20 121.28-21.20L121.28-21.20Q124.00-21.20 126.14-20.14Q128.28-19.08 129.52-17.04L129.52-17.04L127.40-15.60Q126.36-17.16 124.76-17.94Q123.16-18.72 121.28-18.72L121.28-18.72Q119.00-18.72 117.18-17.70Q115.36-16.68 114.34-14.80Q113.32-12.92 113.32-10.52L113.32-10.52Q113.32-8.08 114.34-6.22Q115.36-4.36 117.18-3.34Q119.00-2.32 121.28-2.32L121.28-2.32Q123.16-2.32 124.76-3.08Q126.36-3.84 127.40-5.40L127.40-5.40L129.52-3.96Q128.28-1.92 126.12-0.86Q123.96 0.20 121.28 0.20L121.28 0.20Z M147.40-3.32L148.40-1.28Q147.60-0.56 146.42-0.18Q145.24 0.20 143.96 0.20L143.96 0.20Q141 0.20 139.40-1.40Q137.80-3 137.80-5.92L137.80-5.92L137.80-18.64L134.04-18.64L134.04-21.04L137.80-21.04L137.80-25.64L140.64-25.64L140.64-21.04L147.04-21.04L147.04-18.64L140.64-18.64L140.64-6.08Q140.64-4.20 141.58-3.22Q142.52-2.24 144.28-2.24L144.28-2.24Q145.16-2.24 145.98-2.52Q146.80-2.80 147.40-3.32L147.40-3.32Z M155.56 0L155.56-21.04L158.40-21.04L158.40 0L155.56 0ZM157.00-25.64Q156.12-25.64 155.52-26.24Q154.92-26.84 154.92-27.68L154.92-27.68Q154.92-28.48 155.52-29.08Q156.12-29.68 157.00-29.68L157.00-29.68Q157.88-29.68 158.48-29.10Q159.08-28.52 159.08-27.72L159.08-27.72Q159.08-26.84 158.48-26.24Q157.88-25.64 157.00-25.64L157.00-25.64Z M183.20-21.04L186-21.04L176.64 0L173.72 0L164.40-21.04L167.36-21.04L175.24-3.12L183.20-21.04Z M209.76-10.52L209.72-9.64L192.12-9.64Q192.36-6.36 194.64-4.34Q196.92-2.32 200.40-2.32L200.40-2.32Q202.36-2.32 204.00-3.02Q205.64-3.72 206.84-5.08L206.84-5.08L208.44-3.24Q207.04-1.56 204.94-0.68Q202.84 0.20 200.32 0.20L200.32 0.20Q197.08 0.20 194.58-1.18Q192.08-2.56 190.68-5Q189.28-7.44 189.28-10.52L189.28-10.52Q189.28-13.60 190.62-16.04Q191.96-18.48 194.30-19.84Q196.64-21.20 199.56-21.20L199.56-21.20Q202.48-21.20 204.80-19.84Q207.12-18.48 208.44-16.06Q209.76-13.64 209.76-10.52L209.76-10.52ZM199.56-18.76Q196.52-18.76 194.46-16.82Q192.40-14.88 192.12-11.76L192.12-11.76L207.04-11.76Q206.76-14.88 204.70-16.82Q202.64-18.76 199.56-18.76L199.56-18.76Z M246.40-29.68L249.24-29.68L249.24 0L246.52 0L246.52-4.16Q245.24-2.04 243.14-0.92Q241.04 0.20 238.40 0.20L238.40 0.20Q235.44 0.20 233.04-1.16Q230.64-2.52 229.28-4.96Q227.92-7.40 227.92-10.52L227.92-10.52Q227.92-13.64 229.28-16.08Q230.64-18.52 233.04-19.86Q235.44-21.20 238.40-21.20L238.40-21.20Q240.96-21.20 243.02-20.14Q245.08-19.08 246.40-17.04L246.40-17.04L246.40-29.68ZM238.64-2.32Q240.84-2.32 242.62-3.34Q244.40-4.36 245.42-6.24Q246.44-8.12 246.44-10.52L246.44-10.52Q246.44-12.92 245.42-14.80Q244.40-16.68 242.62-17.70Q240.84-18.72 238.64-18.72L238.64-18.72Q236.40-18.72 234.62-17.70Q232.84-16.68 231.82-14.80Q230.80-12.92 230.80-10.52L230.80-10.52Q230.80-8.12 231.82-6.24Q232.84-4.36 234.62-3.34Q236.40-2.32 238.64-2.32L238.64-2.32Z M277.52-10.52L277.48-9.64L259.88-9.64Q260.12-6.36 262.40-4.34Q264.68-2.32 268.16-2.32L268.16-2.32Q270.12-2.32 271.76-3.02Q273.40-3.72 274.60-5.08L274.60-5.08L276.20-3.24Q274.80-1.56 272.70-0.68Q270.60 0.20 268.08 0.20L268.08 0.20Q264.84 0.20 262.34-1.18Q259.84-2.56 258.44-5Q257.04-7.44 257.04-10.52L257.04-10.52Q257.04-13.60 258.38-16.04Q259.72-18.48 262.06-19.84Q264.40-21.20 267.32-21.20L267.32-21.20Q270.24-21.20 272.56-19.84Q274.88-18.48 276.20-16.06Q277.52-13.64 277.52-10.52L277.52-10.52ZM267.32-18.76Q264.28-18.76 262.22-16.82Q260.16-14.88 259.88-11.76L259.88-11.76L274.80-11.76Q274.52-14.88 272.46-16.82Q270.40-18.76 267.32-18.76L267.32-18.76Z M294.04 0.20Q290.92 0.20 288.46-1.16Q286-2.52 284.60-4.98Q283.20-7.44 283.20-10.52L283.20-10.52Q283.20-13.60 284.60-16.04Q286-18.48 288.46-19.84Q290.92-21.20 294.04-21.20L294.04-21.20Q296.76-21.20 298.90-20.14Q301.04-19.08 302.28-17.04L302.28-17.04L300.16-15.60Q299.12-17.16 297.52-17.94Q295.92-18.72 294.04-18.72L294.04-18.72Q291.76-18.72 289.94-17.70Q288.12-16.68 287.10-14.80Q286.08-12.92 286.08-10.52L286.08-10.52Q286.08-8.08 287.10-6.22Q288.12-4.36 289.94-3.34Q291.76-2.32 294.04-2.32L294.04-2.32Q295.92-2.32 297.52-3.08Q299.12-3.84 300.16-5.40L300.16-5.40L302.28-3.96Q301.04-1.92 298.88-0.86Q296.72 0.20 294.04 0.20L294.04 0.20Z M309.84 0L309.84-21.04L312.68-21.04L312.68 0L309.84 0ZM311.28-25.64Q310.40-25.64 309.80-26.24Q309.20-26.84 309.20-27.68L309.20-27.68Q309.20-28.48 309.80-29.08Q310.40-29.68 311.28-29.68L311.28-29.68Q312.16-29.68 312.76-29.10Q313.36-28.52 313.36-27.72L313.36-27.72Q313.36-26.84 312.76-26.24Q312.16-25.64 311.28-25.64L311.28-25.64Z M328.24 0.20Q325.68 0.20 323.34-0.54Q321-1.28 319.68-2.40L319.68-2.40L320.96-4.64Q322.28-3.60 324.28-2.94Q326.28-2.28 328.44-2.28L328.44-2.28Q331.32-2.28 332.70-3.18Q334.08-4.08 334.08-5.72L334.08-5.72Q334.08-6.88 333.32-7.54Q332.56-8.20 331.40-8.54Q330.24-8.88 328.32-9.20L328.32-9.20Q325.76-9.68 324.20-10.18Q322.64-10.68 321.54-11.88Q320.44-13.08 320.44-15.20L320.44-15.20Q320.44-17.84 322.64-19.52Q324.84-21.20 328.76-21.20L328.76-21.20Q330.80-21.20 332.84-20.66Q334.88-20.12 336.20-19.24L336.20-19.24L334.96-16.96Q332.36-18.76 328.76-18.76L328.76-18.76Q326.04-18.76 324.66-17.80Q323.28-16.84 323.28-15.28L323.28-15.28Q323.28-14.08 324.06-13.36Q324.84-12.64 326-12.30Q327.16-11.96 329.20-11.60L329.20-11.60Q331.72-11.12 333.24-10.64Q334.76-10.16 335.84-9Q336.92-7.84 336.92-5.80L336.92-5.80Q336.92-3.04 334.62-1.42Q332.32 0.20 328.24 0.20L328.24 0.20Z M344.16 0L344.16-21.04L347-21.04L347 0L344.16 0ZM345.60-25.64Q344.72-25.64 344.12-26.24Q343.52-26.84 343.52-27.68L343.52-27.68Q343.52-28.48 344.12-29.08Q344.72-29.68 345.60-29.68L345.60-29.68Q346.48-29.68 347.08-29.10Q347.68-28.52 347.68-27.72L347.68-27.72Q347.68-26.84 347.08-26.24Q346.48-25.64 345.60-25.64L345.60-25.64Z M365.52 0.20Q362.48 0.20 360.04-1.18Q357.60-2.56 356.20-5Q354.80-7.44 354.80-10.52L354.80-10.52Q354.80-13.60 356.20-16.04Q357.60-18.48 360.04-19.84Q362.48-21.20 365.52-21.20L365.52-21.20Q368.56-21.20 371-19.84Q373.44-18.48 374.82-16.04Q376.20-13.60 376.20-10.52L376.20-10.52Q376.20-7.44 374.82-5Q373.44-2.56 371-1.18Q368.56 0.20 365.52 0.20L365.52 0.20ZM365.52-2.32Q367.76-2.32 369.54-3.34Q371.32-4.36 372.32-6.24Q373.32-8.12 373.32-10.52L373.32-10.52Q373.32-12.92 372.32-14.80Q371.32-16.68 369.54-17.70Q367.76-18.72 365.52-18.72L365.52-18.72Q363.28-18.72 361.50-17.70Q359.72-16.68 358.70-14.80Q357.68-12.92 357.68-10.52L357.68-10.52Q357.68-8.12 358.70-6.24Q359.72-4.36 361.50-3.34Q363.28-2.32 365.52-2.32L365.52-2.32Z M394.72-21.20Q398.68-21.20 401.02-18.90Q403.36-16.60 403.36-12.20L403.36-12.20L403.36 0L400.52 0L400.52-11.92Q400.52-15.20 398.88-16.92Q397.24-18.64 394.20-18.64L394.20-18.64Q390.80-18.64 388.82-16.62Q386.84-14.60 386.84-11.04L386.84-11.04L386.84 0L384.00 0L384.00-21.04L386.72-21.04L386.72-17.16Q387.88-19.08 389.94-20.14Q392.00-21.20 394.72-21.20L394.72-21.20Z M411.52-9.60L411.52-12.08L422.00-12.08L422.00-9.60L411.52-9.60Z M456.60-21.20Q460.56-21.20 462.82-18.92Q465.08-16.64 465.08-12.20L465.08-12.20L465.08 0L462.24 0L462.24-11.92Q462.24-15.20 460.66-16.92Q459.08-18.64 456.20-18.64L456.20-18.64Q452.92-18.64 451.04-16.62Q449.16-14.60 449.16-11.04L449.16-11.04L449.16 0L446.32 0L446.32-11.92Q446.32-15.20 444.74-16.92Q443.16-18.64 440.24-18.64L440.24-18.64Q437-18.64 435.10-16.62Q433.20-14.60 433.20-11.04L433.20-11.04L433.20 0L430.36 0L430.36-21.04L433.08-21.04L433.08-17.20Q434.20-19.12 436.20-20.16Q438.20-21.20 440.80-21.20L440.80-21.20Q443.44-21.20 445.38-20.08Q447.32-18.96 448.28-16.76L448.28-16.76Q449.44-18.84 451.62-20.02Q453.80-21.20 456.60-21.20L456.60-21.20Z M482.16-21.20Q486.28-21.20 488.48-19.14Q490.68-17.08 490.68-13.04L490.68-13.04L490.68 0L487.96 0L487.96-3.28Q487-1.64 485.14-0.72Q483.28 0.20 480.72 0.20L480.72 0.20Q477.20 0.20 475.12-1.48Q473.04-3.16 473.04-5.92L473.04-5.92Q473.04-8.60 474.98-10.24Q476.92-11.88 481.16-11.88L481.16-11.88L487.84-11.88L487.84-13.16Q487.84-15.88 486.32-17.30Q484.80-18.72 481.88-18.72L481.88-18.72Q479.88-18.72 478.04-18.06Q476.20-17.40 474.88-16.24L474.88-16.24L473.60-18.36Q475.20-19.72 477.44-20.46Q479.68-21.20 482.16-21.20L482.16-21.20ZM481.16-2.04Q483.56-2.04 485.28-3.14Q487-4.24 487.84-6.32L487.84-6.32L487.84-9.76L481.24-9.76Q475.84-9.76 475.84-6L475.84-6Q475.84-4.16 477.24-3.10Q478.64-2.04 481.16-2.04L481.16-2.04Z M516.68 0L508.20-10.56L503.24-6L503.24 0L500.40 0L500.40-29.68L503.24-29.68L503.24-9.56L515.80-21.04L519.32-21.04L510.32-12.44L520.16 0L516.68 0Z M526.12 0L526.12-21.04L528.96-21.04L528.96 0L526.12 0ZM527.56-25.64Q526.68-25.64 526.08-26.24Q525.48-26.84 525.48-27.68L525.48-27.68Q525.48-28.48 526.08-29.08Q526.68-29.68 527.56-29.68L527.56-29.68Q528.44-29.68 529.04-29.10Q529.64-28.52 529.64-27.72L529.64-27.72Q529.64-26.84 529.04-26.24Q528.44-25.64 527.56-25.64L527.56-25.64Z M549.60-21.20Q553.56-21.20 555.90-18.90Q558.24-16.60 558.24-12.20L558.24-12.20L558.24 0L555.40 0L555.40-11.92Q555.40-15.20 553.76-16.92Q552.12-18.64 549.08-18.64L549.08-18.64Q545.68-18.64 543.70-16.62Q541.72-14.60 541.72-11.04L541.72-11.04L541.72 0L538.88 0L538.88-21.04L541.60-21.04L541.60-17.16Q542.76-19.08 544.82-20.14Q546.88-21.20 549.60-21.20L549.60-21.20Z M584.80-21.04L587.52-21.04L587.52-2.56Q587.52 2.80 584.90 5.38Q582.28 7.96 577 7.96L577 7.96Q574.08 7.96 571.46 7.10Q568.84 6.24 567.20 4.72L567.20 4.72L568.64 2.56Q570.16 3.92 572.34 4.68Q574.52 5.44 576.92 5.44L576.92 5.44Q580.92 5.44 582.80 3.58Q584.68 1.72 584.68-2.20L584.68-2.20L584.68-4.88Q583.36-2.88 581.22-1.84Q579.08-0.80 576.48-0.80L576.48-0.80Q573.52-0.80 571.10-2.10Q568.68-3.40 567.30-5.74Q565.92-8.08 565.92-11.04L565.92-11.04Q565.92-14 567.30-16.32Q568.68-18.64 571.08-19.92Q573.48-21.20 576.48-21.20L576.48-21.20Q579.16-21.20 581.32-20.12Q583.48-19.04 584.80-17L584.80-17L584.80-21.04ZM576.76-3.32Q579.04-3.32 580.88-4.30Q582.72-5.28 583.74-7.04Q584.76-8.80 584.76-11.04L584.76-11.04Q584.76-13.28 583.74-15.02Q582.72-16.76 580.90-17.74Q579.08-18.72 576.76-18.72L576.76-18.72Q574.48-18.72 572.66-17.76Q570.84-16.80 569.82-15.04Q568.80-13.28 568.80-11.04L568.80-11.04Q568.80-8.80 569.82-7.04Q570.84-5.28 572.66-4.30Q574.48-3.32 576.76-3.32L576.76-3.32Z"/></g>
</svg>
</g><g opacity="1" transform="rotate(0 442.5862 318.055)">
<svg width="378.8275" height="119.8902" x="442.5862" y="318.055" version="1.1" preserveAspectRatio="none" viewBox="-0.24 -27.52 116.28 36.8">
  <g transform="matrix(1 0 0 1 0 0)" class="aD6z1nYkhcolor"><path id="id-D6z1nYkh6" d="M17.40-27.52L23.28-27.52Q22.88-27.44 22-26.64Q21.12-25.84 19.88-23.68L19.88-23.68L12.96-11.80L12.96-3.72Q12.96-1.68 13.52-0.88Q14.08-0.08 14.56 0L14.56 0L8.48 0Q8.96-0.08 9.52-0.86Q10.08-1.64 10.08-3.72L10.08-3.72L10.08-11.84L3.24-23.72Q2.04-25.80 1.16-26.58Q0.28-27.36-0.24-27.52L-0.24-27.52L6.48-27.52Q5.48-27.32 5.48-26.24L5.48-26.24Q5.48-25.88 5.72-25.38Q5.96-24.88 6.48-23.96L6.48-23.96L12.28-13.76L18.08-23.80Q18.76-24.92 18.76-26.08L18.76-26.08Q18.76-26.84 18.30-27.14Q17.84-27.44 17.40-27.52L17.40-27.52Z M33.80 0.48Q32.52 0.44 31.64-0.20Q30.76-0.84 30.64-1.68L30.64-1.68Q29.92-0.64 28.74-0.08Q27.56 0.48 26.40 0.48L26.40 0.48Q24.56 0.48 23.32-0.58Q22.08-1.64 22.08-3.36L22.08-3.36Q22.08-7.80 30.40-7.80L30.40-7.80L30.40-8.24Q30.40-10.44 29.76-11.48L29.76-11.48Q28.88-12.96 26.88-12.96L26.88-12.96Q25.32-12.96 24.30-12.04Q23.28-11.12 23.28-9.64L23.28-9.64Q23.04-10.04 22.90-10.36Q22.76-10.68 22.76-11.24L22.76-11.24Q22.76-12.68 24.12-13.78Q25.48-14.88 27.68-14.88L27.68-14.88Q30.80-14.88 32.12-12.80L32.12-12.80Q32.56-12.16 32.76-11.20Q32.96-10.24 32.96-8.68L32.96-8.68L32.96-3.92Q32.96-2.68 33.66-2Q34.36-1.32 35.64-1.32L35.64-1.32L36.16-1.32L33.80 0.48ZM30.40-6.60Q27.20-6.60 26.08-5.80Q24.96-5 24.96-3.64L24.96-3.64Q24.96-2.52 25.56-1.88Q26.16-1.24 27.16-1.24L27.16-1.24Q27.92-1.24 28.60-1.60Q29.28-1.96 29.76-2.60L29.76-2.60Q30.40-3.44 30.40-4.88L30.40-4.88L30.40-6.60Z M42.92-0.12L43.36-1.20L38.68-11.80Q38.00-13.32 37.38-13.90Q36.76-14.48 36.40-14.56L36.40-14.56L42.24-14.56Q41.88-14.48 41.52-14.20Q41.16-13.92 41.16-13.20L41.16-13.20Q41.16-12.52 41.56-11.68L41.56-11.68L44.80-4.20L47.68-11.28Q47.96-12 47.96-12.76L47.96-12.76Q47.96-13.48 47.66-13.96Q47.36-14.44 46.68-14.56L46.68-14.56L52.04-14.56Q51.60-14.48 50.90-13.88Q50.20-13.28 49.52-11.64L49.52-11.64L44.08 1Q43 3.52 42.48 4.98Q41.96 6.44 41.48 8L41.48 8Q41.28 8.76 41.08 9.28L41.08 9.28L37.00 9.28Q38.08 8.76 39.66 6.36Q41.24 3.96 42.92-0.12L42.92-0.12Z M75.68-27.52L81.32-27.52Q80.76-27.40 80.22-26.62Q79.68-25.84 79.68-23.88L79.68-23.88L79.68 1.12L59.20-22.76L59.20-3.60Q59.20-1.68 59.88-0.90Q60.56-0.12 61.20 0L61.20 0L55.56 0Q56.12-0.12 56.70-0.90Q57.28-1.68 57.28-3.64L57.28-3.64L57.28-23.64Q57.28-25 56.36-26.12Q55.44-27.24 54.04-27.52L54.04-27.52L59-27.52L77.76-5.64L77.76-23.88Q77.76-26.96 75.68-27.52L75.68-27.52Z M97.80 0.48Q96.52 0.44 95.64-0.20Q94.76-0.84 94.64-1.68L94.64-1.68Q93.92-0.64 92.74-0.08Q91.56 0.48 90.40 0.48L90.40 0.48Q88.56 0.48 87.32-0.58Q86.08-1.64 86.08-3.36L86.08-3.36Q86.08-7.80 94.40-7.80L94.40-7.80L94.40-8.24Q94.40-10.44 93.76-11.48L93.76-11.48Q92.88-12.96 90.88-12.96L90.88-12.96Q89.32-12.96 88.30-12.04Q87.28-11.12 87.28-9.64L87.28-9.64Q87.04-10.04 86.90-10.36Q86.76-10.68 86.76-11.24L86.76-11.24Q86.76-12.68 88.12-13.78Q89.48-14.88 91.68-14.88L91.68-14.88Q94.80-14.88 96.12-12.80L96.12-12.80Q96.56-12.16 96.76-11.20Q96.96-10.24 96.96-8.68L96.96-8.68L96.96-3.92Q96.96-2.68 97.66-2Q98.36-1.32 99.64-1.32L99.64-1.32L100.16-1.32L97.80 0.48ZM94.40-6.60Q91.20-6.60 90.08-5.80Q88.96-5 88.96-3.64L88.96-3.64Q88.96-2.52 89.56-1.88Q90.16-1.24 91.16-1.24L91.16-1.24Q91.92-1.24 92.60-1.60Q93.28-1.96 93.76-2.60L93.76-2.60Q94.40-3.44 94.40-4.88L94.40-4.88L94.40-6.60Z M106.92-0.12L107.36-1.20L102.68-11.80Q102-13.32 101.38-13.90Q100.76-14.48 100.40-14.56L100.40-14.56L106.24-14.56Q105.88-14.48 105.52-14.20Q105.16-13.92 105.16-13.20L105.16-13.20Q105.16-12.52 105.56-11.68L105.56-11.68L108.80-4.20L111.68-11.28Q111.96-12 111.96-12.76L111.96-12.76Q111.96-13.48 111.66-13.96Q111.36-14.44 110.68-14.56L110.68-14.56L116.04-14.56Q115.60-14.48 114.90-13.88Q114.20-13.28 113.52-11.64L113.52-11.64L108.08 1Q107 3.52 106.48 4.98Q105.96 6.44 105.48 8L105.48 8Q105.28 8.76 105.08 9.28L105.08 9.28L101 9.28Q102.08 8.76 103.66 6.36Q105.24 3.96 106.92-0.12L106.92-0.12Z"/></g>
</svg>
</g></svg>