<?xml version="1.0" encoding="UTF-8" standalone="no"?>
<svg
   xmlns:dc="http://purl.org/dc/elements/1.1/"
   xmlns:cc="http://creativecommons.org/ns#"
   xmlns:rdf="http://www.w3.org/1999/02/22-rdf-syntax-ns#"
   xmlns:svg="http://www.w3.org/2000/svg"
   xmlns="http://www.w3.org/2000/svg"
   xmlns:sodipodi="http://sodipodi.sourceforge.net/DTD/sodipodi-0.dtd"
   xmlns:inkscape="http://www.inkscape.org/namespaces/inkscape"
   viewBox="227.5862 283.0001 190.00011 190.00011"
   width="1599.7921"
   height="1599.7921"
   preserveAspectRatio="none"
   version="1.1"
   id="svg42"
   sodipodi:docname="Original-Logo-only.svg"
   inkscape:version="1.0.2 (e86c8708, 2021-01-15)">
  <metadata
     id="metadata46">
    <rdf:RDF>
      <cc:Work
         rdf:about="">
        <dc:format>image/svg+xml</dc:format>
        <dc:type
           rdf:resource="http://purl.org/dc/dcmitype/StillImage" />
        <dc:title></dc:title>
      </cc:Work>
    </rdf:RDF>
  </metadata>
  <sodipodi:namedview
     pagecolor="#ffffff"
     bordercolor="#666666"
     borderopacity="1"
     objecttolerance="10"
     gridtolerance="10"
     guidetolerance="10"
     inkscape:pageopacity="0"
     inkscape:pageshadow="2"
     inkscape:window-width="1389"
     inkscape:window-height="832"
     id="namedview44"
     showgrid="false"
     fit-margin-top="0"
     fit-margin-left="0"
     fit-margin-right="0"
     fit-margin-bottom="0"
     inkscape:zoom="0.2194"
     inkscape:cx="2661.7198"
     inkscape:cy="799.89607"
     inkscape:window-x="2239"
     inkscape:window-y="68"
     inkscape:window-maximized="0"
     inkscape:current-layer="svg24" />
  <defs
     id="defs10" />
  <style
     id="style12">.a6izo4zJpcolor {fill:#344960;fill-opacity:1;}.a6izo4zJpstrokeColor-str {stroke:#8C7B6E;stroke-opacity:1;}.aD6z1nYkhcolor {fill:#344960;fill-opacity:1;}.aD6z1nYkhstrokeColor-str {stroke:#8C7B6E;stroke-opacity:1;}.aIptOCySncolors-0 {fill:#CC8561;fill-opacity:1;}.aIptOCySncolors-1 {fill:#344960;fill-opacity:1;}.aIptOCySncolors-2 {fill:#8C7B6E;fill-opacity:1;}.aIptOCySncolors-3 {fill:#9E8172;fill-opacity:1;}.aIptOCySncolors-4 {fill:#C45820;fill-opacity:1;}.aIptOCySncolors-5 {fill:#9A4703;fill-opacity:1;}.aIptOCySncolors-6 {fill:#C0A293;fill-opacity:1;}.aIptOCySncolors-7 {fill:#FBF3EE;fill-opacity:1;}</style>
  <g
     opacity="1"
     id="g26">
    <svg
       width="190.00011"
       height="190.00011"
       x="227.5862"
       y="283.00009"
       version="1.1"
       preserveAspectRatio="none"
       viewBox="20 20 160 160"
       id="svg24">
      <g
         id="g22">
        <g
           id="g20">
          <path
             d="m 100,20 c -13.143,0 -26.176,3.26 -37.696,9.424 a 4.702,4.702 0 0 0 -1.93,6.366 c 1.219,2.292 4.081,3.174 6.366,1.93 8.779,-4.697 18.573,-7.349 28.554,-8.019 V 45.336 C 67.218,47.735 45.098,71.313 45.098,100 a 54.814,54.814 0 0 0 7.384,27.482 4.703,4.703 0 0 0 6.434,1.704 4.71,4.71 0 0 0 1.703,-6.434 45.394,45.394 0 0 1 -6.109,-22.751 c 0,-25.086 20.404,-45.49 45.49,-45.49 7.028,0 13.768,1.569 20.031,4.657 a 4.707657,4.707657 0 1 0 4.167,-8.443 c -6.158,-3.034 -12.703,-4.787 -19.491,-5.36 V 29.65 c 36.726,2.44 65.882,33.017 65.882,70.35 0,38.922 -31.667,70.588 -70.588,70.588 -38.921,0 -70.589,-31.666 -70.589,-70.588 0,-15.355 4.841,-29.945 14.001,-42.206 a 4.71,4.71 0 0 0 -0.95,-6.587 4.703,4.703 0 0 0 -6.587,0.95 C 25.49,66.06 20,82.604 20,100 c 0,44.112 35.888,80 80,80 44.112,0 80,-35.888 80,-80 0,-44.112 -35.888,-80 -80,-80 z"
             data-color="1"
             class="aIptOCySncolors-0"
             id="path14" />
          <path
             d="m 79.608,100 c 0,-2.598 -2.108,-4.706 -4.706,-4.706 -2.598,0 -4.706,2.108 -4.706,4.706 0,14.822 10.907,27.053 25.098,29.328 v 15.824 c -3.881,-0.388 -7.715,-1.21 -11.366,-2.597 a 4.707,4.707 0 0 0 -3.345,8.799 54.578,54.578 0 0 0 19.418,3.548 54.743,54.743 0 0 0 27.457,-7.377 4.7,4.7 0 0 0 1.71,-6.428 c -1.293,-2.249 -4.185,-3.015 -6.428,-1.71 -5.522,3.197 -11.716,5.1 -18.033,5.758 v -15.817 c 12.648,-2.028 22.594,-11.974 24.622,-24.622 h 15.889 c -0.568,5.574 -2.119,10.933 -4.696,15.968 a 4.695,4.695 0 0 0 2.04,6.33 4.696,4.696 0 0 0 6.329,-2.04 c 3.934,-7.665 6.011,-16.299 6.011,-24.963 0,-11.225 -3.376,-22.028 -9.767,-31.225 -1.477,-2.132 -4.418,-2.659 -6.55,-1.183 a 4.71,4.71 0 0 0 -1.183,6.55 c 4.391,6.317 6.95,13.564 7.734,21.152 H 129.328 C 127.053,81.103 114.822,70.196 100,70.196 c -7.678,0 -14.969,2.923 -20.539,8.223 a 4.704,4.704 0 0 0 -0.159,6.654 4.71,4.71 0 0 0 6.654,0.159 A 20.27,20.27 0 0 1 100,79.607 c 11.244,0 20.392,9.148 20.392,20.392 0,11.244 -9.148,20.392 -20.392,20.392 -11.244,0 -20.392,-9.147 -20.392,-20.391 z"
             data-color="1"
             class="aIptOCySncolors-0"
             id="path16" />
          <path
             d="m 106.275,100 a 6.275,6.275 0 1 1 -12.55,0 6.275,6.275 0 0 1 12.55,0 z"
             data-color="1"
             class="aIptOCySncolors-0"
             id="path18" />
        </g>
      </g>
    </svg>
  </g>
  <g
     opacity="1"
     id="g33">
    <svg
       width="311.13"
       height="20"
       x="470.435"
       y="453.00021"
       version="1.1"
       preserveAspectRatio="none"
       viewBox="2.08 -29.68 585.44 37.64"
       id="svg31" />
  </g>
  <g
     opacity="1"
     id="g40">
    <svg
       width="378.82751"
       height="119.8902"
       x="442.58621"
       y="318.05499"
       version="1.1"
       preserveAspectRatio="none"
       viewBox="-0.24 -27.52 116.28 36.8"
       id="svg38" />
  </g>
</svg>
